<mxfile host="app.diagrams.net" modified="2024-01-04T15:37:53.342Z" agent="Mozilla/5.0 (Macintosh; Intel Mac OS X 10_15_7) AppleWebKit/537.36 (KHTML, like Gecko) Chrome/120.0.0.0 Safari/537.36" etag="zvqqIXLXIaVEdtCIAUa1" version="22.1.16" type="github">
  <diagram name="Page-1" id="k9JpX8zcMGFV7Cq2Ri71">
    <mxGraphModel dx="1050" dy="666" grid="1" gridSize="10" guides="1" tooltips="1" connect="1" arrows="1" fold="1" page="1" pageScale="1" pageWidth="827" pageHeight="1169" math="0" shadow="0">
      <root>
        <mxCell id="0" />
        <mxCell id="1" parent="0" />
        <mxCell id="8kQudI3jCt_GCVGrKhtc-2" value="&lt;h1&gt;Single Server Setup&lt;/h1&gt;&lt;p style=&quot;&quot;&gt;&lt;font style=&quot;font-size: 16px;&quot;&gt;1. User hit the website by using browser or mobile.&amp;nbsp;&lt;/font&gt;&lt;/p&gt;&lt;p style=&quot;font-size: 16px;&quot;&gt;&lt;font style=&quot;font-size: 16px;&quot;&gt;2. It reaches to DNS and DNS gives IP&lt;/font&gt;&lt;/p&gt;&lt;p style=&quot;font-size: 16px;&quot;&gt;&lt;font style=&quot;font-size: 16px;&quot;&gt;3. Browser or mobile app hit the webserver&lt;/font&gt;&lt;/p&gt;&lt;p style=&quot;font-size: 16px;&quot;&gt;&lt;font style=&quot;font-size: 16px;&quot;&gt;4. Webserver return the data to the browser or mobile app&lt;/font&gt;&lt;/p&gt;" style="text;html=1;spacing=5;spacingTop=-20;whiteSpace=wrap;overflow=hidden;rounded=0;fillColor=#f5f5f5;fontColor=#333333;strokeColor=#666666;" vertex="1" parent="1">
          <mxGeometry x="9" y="70" width="810" height="210" as="geometry" />
        </mxCell>
        <mxCell id="8kQudI3jCt_GCVGrKhtc-13" value="&lt;h1&gt;Server + Database Setup&lt;br&gt;&lt;/h1&gt;&lt;div style=&quot;font-size: 16px;&quot;&gt;When single server is not enough to serve the request and store the data we introduce database in the system.&lt;/div&gt;&lt;div style=&quot;font-size: 16px;&quot;&gt;&lt;br&gt;&lt;/div&gt;&lt;p style=&quot;&quot;&gt;&lt;font style=&quot;font-size: 16px;&quot;&gt;1. User hit the website by using browser or mobile.&amp;nbsp;&lt;/font&gt;&lt;/p&gt;&lt;p style=&quot;font-size: 16px;&quot;&gt;&lt;font style=&quot;font-size: 16px;&quot;&gt;2. It reaches to DNS and DNS gives IP&lt;/font&gt;&lt;/p&gt;&lt;p style=&quot;font-size: 16px;&quot;&gt;&lt;font style=&quot;font-size: 16px;&quot;&gt;3. Browser or mobile app hit the webserver&lt;/font&gt;&lt;/p&gt;&lt;p style=&quot;font-size: 16px;&quot;&gt;&lt;font style=&quot;font-size: 16px;&quot;&gt;4. Web-server hit the request to Database and get the data&amp;nbsp;&lt;/font&gt;&lt;/p&gt;&lt;p style=&quot;font-size: 16px;&quot;&gt;&lt;font style=&quot;font-size: 16px;&quot;&gt;5. Web-server return the data to the browser or mobile app&lt;/font&gt;&lt;/p&gt;" style="text;html=1;spacing=5;spacingTop=-20;whiteSpace=wrap;overflow=hidden;rounded=0;fillColor=#dae8fc;strokeColor=#6c8ebf;" vertex="1" parent="1">
          <mxGeometry x="9" y="300" width="810" height="510" as="geometry" />
        </mxCell>
        <mxCell id="8kQudI3jCt_GCVGrKhtc-25" style="edgeStyle=orthogonalEdgeStyle;rounded=0;orthogonalLoop=1;jettySize=auto;html=1;" edge="1" parent="1">
          <mxGeometry relative="1" as="geometry">
            <mxPoint x="146" y="650" as="sourcePoint" />
            <mxPoint x="146" y="730" as="targetPoint" />
          </mxGeometry>
        </mxCell>
        <mxCell id="8kQudI3jCt_GCVGrKhtc-26" value="3. Hit the server" style="edgeLabel;html=1;align=center;verticalAlign=middle;resizable=0;points=[];" vertex="1" connectable="0" parent="8kQudI3jCt_GCVGrKhtc-25">
          <mxGeometry relative="1" as="geometry">
            <mxPoint x="-26" as="offset" />
          </mxGeometry>
        </mxCell>
        <mxCell id="8kQudI3jCt_GCVGrKhtc-14" value="User&lt;br&gt;Website or mobile" style="rounded=0;whiteSpace=wrap;html=1;" vertex="1" parent="1">
          <mxGeometry x="120" y="590" width="120" height="60" as="geometry" />
        </mxCell>
        <mxCell id="8kQudI3jCt_GCVGrKhtc-15" value="DNS" style="ellipse;whiteSpace=wrap;html=1;aspect=fixed;" vertex="1" parent="1">
          <mxGeometry x="440" y="570" width="80" height="80" as="geometry" />
        </mxCell>
        <mxCell id="8kQudI3jCt_GCVGrKhtc-16" style="edgeStyle=orthogonalEdgeStyle;rounded=0;orthogonalLoop=1;jettySize=auto;html=1;" edge="1" parent="1">
          <mxGeometry relative="1" as="geometry">
            <mxPoint x="240" y="605" as="sourcePoint" />
            <mxPoint x="440" y="605" as="targetPoint" />
          </mxGeometry>
        </mxCell>
        <mxCell id="8kQudI3jCt_GCVGrKhtc-18" value="1. Hit www.site.com" style="edgeLabel;html=1;align=center;verticalAlign=middle;resizable=0;points=[];" vertex="1" connectable="0" parent="8kQudI3jCt_GCVGrKhtc-16">
          <mxGeometry x="0.07" y="1" relative="1" as="geometry">
            <mxPoint as="offset" />
          </mxGeometry>
        </mxCell>
        <mxCell id="8kQudI3jCt_GCVGrKhtc-17" style="edgeStyle=orthogonalEdgeStyle;rounded=0;orthogonalLoop=1;jettySize=auto;html=1;exitX=0;exitY=1;exitDx=0;exitDy=0;" edge="1" parent="1" source="8kQudI3jCt_GCVGrKhtc-15">
          <mxGeometry relative="1" as="geometry">
            <mxPoint x="441.2701665379259" y="634" as="sourcePoint" />
            <mxPoint x="240" y="634" as="targetPoint" />
            <Array as="points">
              <mxPoint x="452" y="634" />
            </Array>
          </mxGeometry>
        </mxCell>
        <mxCell id="8kQudI3jCt_GCVGrKhtc-21" value="2. IP Address" style="edgeLabel;html=1;align=center;verticalAlign=middle;resizable=0;points=[];" vertex="1" connectable="0" parent="8kQudI3jCt_GCVGrKhtc-17">
          <mxGeometry x="-0.0371" y="1" relative="1" as="geometry">
            <mxPoint as="offset" />
          </mxGeometry>
        </mxCell>
        <mxCell id="8kQudI3jCt_GCVGrKhtc-35" style="edgeStyle=orthogonalEdgeStyle;rounded=0;orthogonalLoop=1;jettySize=auto;html=1;entryX=0.5;entryY=1;entryDx=0;entryDy=0;" edge="1" parent="1">
          <mxGeometry relative="1" as="geometry">
            <mxPoint x="205" y="730" as="sourcePoint" />
            <mxPoint x="205" y="650" as="targetPoint" />
          </mxGeometry>
        </mxCell>
        <mxCell id="8kQudI3jCt_GCVGrKhtc-36" value="5. return&lt;br&gt;the response" style="edgeLabel;html=1;align=center;verticalAlign=middle;resizable=0;points=[];" vertex="1" connectable="0" parent="8kQudI3jCt_GCVGrKhtc-35">
          <mxGeometry x="-0.05" relative="1" as="geometry">
            <mxPoint x="15" as="offset" />
          </mxGeometry>
        </mxCell>
        <mxCell id="8kQudI3jCt_GCVGrKhtc-22" value="Server" style="rounded=0;whiteSpace=wrap;html=1;" vertex="1" parent="1">
          <mxGeometry x="120" y="730" width="120" height="60" as="geometry" />
        </mxCell>
        <mxCell id="8kQudI3jCt_GCVGrKhtc-31" style="edgeStyle=orthogonalEdgeStyle;rounded=0;orthogonalLoop=1;jettySize=auto;html=1;exitX=0.145;exitY=1;exitDx=0;exitDy=-4.35;exitPerimeter=0;entryX=1;entryY=0.75;entryDx=0;entryDy=0;" edge="1" parent="1" source="8kQudI3jCt_GCVGrKhtc-27" target="8kQudI3jCt_GCVGrKhtc-22">
          <mxGeometry relative="1" as="geometry">
            <Array as="points">
              <mxPoint x="569" y="775" />
            </Array>
          </mxGeometry>
        </mxCell>
        <mxCell id="8kQudI3jCt_GCVGrKhtc-32" value="4. Return data" style="edgeLabel;html=1;align=center;verticalAlign=middle;resizable=0;points=[];" vertex="1" connectable="0" parent="8kQudI3jCt_GCVGrKhtc-31">
          <mxGeometry x="-0.4711" y="1" relative="1" as="geometry">
            <mxPoint as="offset" />
          </mxGeometry>
        </mxCell>
        <mxCell id="8kQudI3jCt_GCVGrKhtc-27" value="DB" style="shape=cylinder3;whiteSpace=wrap;html=1;boundedLbl=1;backgroundOutline=1;size=15;" vertex="1" parent="1">
          <mxGeometry x="560" y="680" width="60" height="80" as="geometry" />
        </mxCell>
        <mxCell id="8kQudI3jCt_GCVGrKhtc-29" style="edgeStyle=orthogonalEdgeStyle;rounded=0;orthogonalLoop=1;jettySize=auto;html=1;entryX=0;entryY=0;entryDx=0;entryDy=27.5;entryPerimeter=0;" edge="1" parent="1" source="8kQudI3jCt_GCVGrKhtc-22" target="8kQudI3jCt_GCVGrKhtc-27">
          <mxGeometry relative="1" as="geometry" />
        </mxCell>
        <mxCell id="8kQudI3jCt_GCVGrKhtc-30" value="3. read/write/update" style="edgeLabel;html=1;align=center;verticalAlign=middle;resizable=0;points=[];" vertex="1" connectable="0" parent="8kQudI3jCt_GCVGrKhtc-29">
          <mxGeometry x="0.6043" relative="1" as="geometry">
            <mxPoint x="1" y="1" as="offset" />
          </mxGeometry>
        </mxCell>
      </root>
    </mxGraphModel>
  </diagram>
</mxfile>
